<svg xmlns="http://www.w3.org/2000/svg" xmlns:xlink="http://www.w3.org/1999/xlink" width="1024" height="768" version="1.1"><rect id="backgroundrect" width="100%" height="100%" x="0" y="0" fill="none" stroke="none"/>
    <!-- Generator: Sketch 57.1 (83088) - https://sketch.com -->
    <title>Character/selfie</title>
    <desc>Created with Sketch.</desc>
    
<g class="currentLayer" style=""><title>Layer 1</title>
        <path d="M510.3789744436913,398.21831637208555 L510.5333334436913,398.23670437208557 C512.7680614436913,398.66908037208555 516.4724404436912,405.06246437208557 517.9895604436913,406.87956137208556 C522.8797134436912,412.73993037208555 527.7707974436912,418.60029937208554 532.6618804436913,424.4606683720856 C534.6192454436913,426.80612037208556 537.4422054436913,429.2689853720856 538.8364664436913,431.98344837208555 C539.9096194436912,434.0717113720856 540.2772654436912,436.95111037208557 540.9176204436912,439.1894003720856 C548.8708664436913,466.99190837208556 556.6491324436912,494.97426337208555 562.4421114436913,523.3191043720856 C563.6893144436913,529.4198893720855 564.8722954436912,535.5635393720855 565.5657034436913,541.7565773720855 C565.9072884436913,544.8176863720855 566.8063914436913,549.3156983720855 565.4735594436912,552.2743043720856 C563.9704004436912,555.6084433720856 559.1342314436913,556.9940963720856 555.9920244436912,558.0275113720855 C549.8797984436912,560.0393633720855 543.4799714436913,561.2367833720856 537.1480884436912,562.3121313720856 C521.8912584436913,564.9017273720856 506.4436244436913,566.4057243720856 491.02391344369124,567.6227123720855 C486.31339544369126,567.9945183720856 481.46419544369127,567.9879953720856 476.78346044369124,568.6216503720856 C474.54780244369124,568.9235673720856 475.21794144369125,568.3234593720856 474.51336544369127,569.8246613720855 C473.53235644369124,571.9129243720856 474.18294944369126,576.2702283720856 474.06660544369123,578.5467243720856 C473.79203444369125,583.9020333720856 473.51839444369125,589.2564113720856 473.24382444369127,594.6117213720855 L473.24382444369127,594.6117213720855 L470.99978944369127,638.4317023720856 C470.2412294436913,653.2405723720856 469.4835994436913,668.0494433720855 468.72410944369125,682.8583133720856 C468.43743844369124,688.4689483720856 468.14983744369124,694.0805153720855 467.8631664436912,699.6920823720856 C467.70959344369123,702.6907573720856 468.16659044369123,706.5635023720856 467.3624234436912,709.4671293720855 C466.75371444369125,711.6634863720856 467.75426944369127,711.0158543720855 465.0616134436913,711.1463123720856 C458.82559844369126,711.4472983720856 452.3643414436913,710.6925043720855 446.12646444369125,710.4688623720856 C439.05184544369126,710.2163323720856 431.97629444369124,709.9628703720856 424.89981344369124,709.7103403720856 C422.87915844369127,709.6376563720855 420.6211624436913,710.2107413720855 419.80675744369125,708.7617233720856 C418.81551044369127,706.9977413720856 419.5703474436913,702.1474913720856 419.50054144369125,700.1775723720856 C419.30415344369123,694.6880773720856 419.1077654436913,689.1976503720856 418.91137744369126,683.7081553720856 C418.37247344369126,668.6383683720856 417.83357044369126,653.5685813720855 417.29466744369125,638.4987943720856 C416.55937544369124,617.9469673720856 415.82315344369124,597.3942083720856 415.08786244369134,576.8405173720855 C407.22024444369123,578.4246523720856 399.35169644369125,580.0078563720856 391.4831484436913,581.5910593720856 C379.85716844369125,583.9309213720855 368.23025744369124,586.2707823720856 356.60334644369124,588.6097113720856 C351.2710874436913,589.6831963720856 344.9382744436912,592.1320833720856 339.43196644369124,591.3418793720856 C333.9628874436913,590.5572663720856 331.7020994436913,588.2211323720855 331.39495244369124,583.0298273720856 C331.06546744369126,577.4648533720856 331.19391044369127,571.8560813720856 331.26837044369125,566.2864483720856 C331.39122944369126,557.1758053720856 331.6527694436912,548.0670273720856 331.99714644369124,538.9619763720856 C347.53134044369125,537.5632773720856 363.06646444369125,536.1636473720856 378.60065744369126,534.7640173720856 C386.8722194436913,534.0185413720856 395.1447134436913,533.2739983720855 403.41534444369125,532.5285223720856 C405.29266444369125,532.3598583720856 409.92034644369124,532.7223463720856 410.75802044369124,531.3068743720855 C412.06106744369123,529.1067903720856 410.6109614436913,521.8738143720856 410.57187044369124,519.3857893720856 L410.57187044369124,519.3857893720856 L410.20143244369126,495.8641743720856 L410.20143244369126,495.8641743720856 L408.8434704436913,409.3181973720856 C412.56274144369127,409.4402693720856 416.28201244369126,409.5511583720856 420.00128344369125,409.65552537208555 C436.18234744369124,410.1121293720856 452.4434554436913,410.7737383720856 468.62917244369123,410.27613337208555 C476.7462304436913,410.0273313720856 484.43700644369125,407.8374973720856 492.09985844369123,405.2534923720856 C496.1746764436913,403.8799543720856 500.20760944369124,402.3843443720856 504.2088974436913,400.81139037208555 C505.4682004436912,400.3165813720856 509.1744414436913,397.97392437208555 510.5333334436913,398.23670437208557 zM488.59425044369124,478.7520803720856 L480.3277754436913,519.1836693720855 L508.61525544369124,517.3091893720856 L488.59425044369124,478.7520803720856 z" id="Accent" fill="#911cff" class="" fill-opacity="1"/>
        <g id="Ink" fill="#000000" class="">
            <path d="M724.8691676194725,150.84628837208555 C724.2912306194726,155.34340437208556 724.7025806194724,160.24621837208556 719.6258466194724,161.43167837208557 C714.9278906194725,162.52967037208558 709.7729816194725,162.22167437208557 704.9828906194725,162.60597137208558 C699.5999706194725,163.03865537208557 694.2328726194726,163.62952337208557 688.8611206194726,164.16177137208558 C682.0887306194725,164.83266237208557 683.0547516194724,162.23004937208557 681.5740766194725,156.44604937208555 C680.2209016194724,151.16452037208558 678.0617776194724,145.89322637208556 676.2656096194726,140.74196837208558 C675.4308106194725,138.34778637208558 674.4340766194725,136.1452883720856 673.2958836194725,133.88882117208556 C672.2647156194726,131.84636947208557 672.7551716194725,129.06789067208558 671.6439676194725,127.35111457208558 C667.8524706194726,121.49360497208558 649.3603176194724,137.51126537208557 647.6423246194724,134.35407217208558 C650.7711936194726,131.91801807208557 656.1866866194725,129.19257787208556 657.1461936194726,125.02392927208557 C658.2750806194724,120.12483657208557 655.1620326194725,118.66208757208558 651.2504816194726,120.45330377208558 C641.6246976194725,124.86295247208557 630.5163766194726,128.30953157208558 620.0185656194725,129.91650847208558 C623.4136026194725,127.64701417208558 654.1206276194725,109.75997557208557 643.8154636194724,104.45425357208558 C641.4925436194725,103.25855857208558 638.3906646194725,105.50944277208558 636.2957556194725,106.36085207208558 C632.9714496194724,107.71287137208557 629.4991676194725,108.61918027208557 626.0287486194725,109.50501807208558 C622.3721976194724,110.43831147208557 618.7063396194725,111.33624587208557 615.0293136194725,112.18486367208557 C612.4504636194724,112.78038487208558 607.8530186194726,114.89541577208557 605.3402446194725,114.37340417208557 C602.7893136194725,113.84301807208557 607.3085846194725,112.25930377208557 608.0484566194725,111.88617247208558 C611.2750436194725,110.26058567208557 614.4495146194724,108.51403347208557 617.5988576194725,106.74514937208558 C623.1874526194724,103.60656637208557 628.3488766194725,99.97109527208556 632.5991866194724,95.11852777208557 C635.8062306194724,91.45700267208557 641.1016676194724,83.46119957208558 638.8690226194725,78.39833857208558 C637.5754086194725,75.46353547208557 634.7396976194725,72.75112227208558 633.0738216194725,69.97078257208557 C631.1287486194725,66.72333077208557 629.5587306194725,63.26186367208557 627.8695876194724,59.878558572085566 C630.6969236194725,61.12170917208557 633.8704636194725,61.43994087208557 636.7564306194724,62.55561267208557 C639.6423976194725,63.67221497208557 642.5730366194725,64.57573237208557 645.5753356194725,65.40574007208556 C651.5985476194726,67.07040807208557 657.6040766194725,67.36630767208557 663.5733106194725,68.71646597208557 C670.3298796194724,70.24435007208558 677.3702996194725,71.95275167208557 684.2348246194724,72.83579797208557 C690.2115036194725,73.60346207208556 695.5860476194725,75.23928447208557 700.7074526194725,78.49790227208557 C711.1652446194726,85.15471307208557 718.4197156194725,94.71748137208557 722.0892956194725,106.54323047208557 C724.2391136194725,113.47081727208557 724.7621426194726,120.69895627208557 725.0152816194725,127.90662427208557 C725.2823796194725,135.50603347208556 725.8426356194725,143.28037737208558 724.8691676194725,150.84628837208555 M666.1772886194725,151.40552037208556 C658.8744236194725,156.72892137208555 650.3607736194725,160.88919537208557 642.5237116194726,165.41794837208556 C638.0388766194725,168.00846637208556 633.4591136194724,170.42963237208556 628.8849346194725,172.85824237208558 C625.6388036194726,174.58153137208558 621.6946786194725,177.75268237208556 618.1218866194724,178.63665937208557 C615.8613216194725,179.19589037208556 616.0297706194725,179.23869337208558 614.5993506194725,177.17763237208558 C613.2322156194725,175.20962037208557 612.0381826194725,173.09086737208557 610.7585296194725,171.06423437208556 C608.3993136194724,167.32733837208556 606.0177626194725,163.6044003720856 603.6362116194725,159.88146237208556 C598.2970326194725,151.53579037208556 592.9680916194725,143.19197937208557 587.3580916194726,135.0240334720856 C581.7304086194724,126.82817247208557 576.3316676194725,118.48157017208557 570.8798796194725,110.16939647208557 C568.3457006194725,106.30502197208557 565.8273436194725,102.42575937208557 563.1386756194725,98.66746207208557 C561.0847156194725,95.79779417208557 555.8209196194725,91.42071307208556 558.3206646194725,88.04206057208557 C560.6426536194725,84.90347757208556 565.9325076194725,82.29621117208558 569.0613766194725,79.92063967208557 C572.8845146194725,77.02026517208557 576.7309196194725,74.14966677208557 580.5438216194725,71.23440417208556 C588.7410476194725,64.96747367208557 596.7232926194724,58.42790607208557 604.9130736194725,52.152601072085574 C611.8632196194725,64.34310687208557 620.0399706194726,75.77153157208556 628.2874526194726,87.10504507208557 C620.8291676194725,91.86456247208557 613.2945696194724,96.38866287208558 605.4351716194725,100.46333077208557 C599.6306646194726,103.47257407208558 590.7503356194725,107.53886747208557 587.0835476194725,113.24749687208558 C583.4716676194726,118.86865897208557 587.0193326194725,125.35425747208558 593.4576166194724,125.45754317208556 C597.3077446194725,125.51895627208557 601.1457736194725,124.49912617208557 604.9205186194724,123.91663197208557 C607.6454816194725,123.49604507208556 612.6207736194725,121.53175557208557 615.0777086194726,122.91634237208557 C610.6617406194725,125.73390227208557 594.6404816194724,133.94558177208557 603.2769786194725,141.14487537208555 C609.4500256194725,146.29148137208557 619.8864126194725,138.78140037208556 626.5545696194724,140.32696437208557 C624.5220146194724,144.22762837208558 622.4094236194725,150.44989437208557 628.0510656194725,152.5714393720856 C632.7462306194725,154.33753137208555 638.8913576194725,151.04634637208557 643.1165406194725,149.30072437208557 C646.1700256194724,148.03989437208557 649.2039676194725,146.73626137208555 652.2062666194724,145.36004937208557 C654.5934016194725,144.26484837208557 657.4523796194725,142.04653137208555 660.0033106194726,141.57383637208557 C662.9795516194724,141.02204937208558 669.0399896194725,149.31747337208557 666.1772886194725,151.40552037208556 M530.4158466194725,438.9045623720856 C534.5944966194725,438.14248137208557 536.7396606194725,436.4145393720856 538.0556096194725,441.48763537208555 C539.2347516194725,446.03220737208557 540.4027266194726,450.4092883720856 541.9215586194725,454.86918437208556 C535.3948616194725,455.4330683720856 529.6378176194726,458.54931937208556 524.8784386194725,462.9329133720856 C521.4889856194725,466.0566083720856 514.7482376194725,473.51179037208556 516.4196976194726,478.7421413720856 C520.4792226194725,491.45279837208557 540.9843866194725,462.9384963720856 543.4208466194725,459.8911033720856 C546.4036026194725,464.2505043720856 547.5008466194724,469.95820337208556 548.9833836194725,474.9438323720856 C550.0387486194725,478.4918363720856 553.9549526194726,485.29380537208556 548.7777086194725,486.15638137208555 C541.5102086194725,487.3678943720856 527.8751536194725,490.07379437208556 528.7369416194725,500.3670063720856 C529.7550806194724,512.5165703720857 545.2105006194724,512.4477133720856 553.8814306194724,512.9939173720855 C558.7701716194724,513.3009833720855 558.7925076194725,517.2183963720856 559.4886386194726,521.6019913720856 C559.8004086194725,523.5625583720855 560.7729456194725,526.2116973720856 559.1080006194725,527.6474623720856 C557.6301166194726,528.9213193720856 553.1034016194725,528.9566783720855 551.1797336194725,529.3688903720856 C545.5715956194724,530.5729603720856 539.9671786194725,531.8002923720856 534.3599706194725,533.0034313720855 C527.9942776194725,534.3694083720856 524.6280916194726,532.4562963720855 518.6774706194725,530.7125353720855 C516.4736756194725,530.0667673720856 514.2605736194726,530.3394043720856 514.0986386194725,527.8726433720856 C513.9990586194725,526.3587173720855 515.4806646194725,524.0185043720855 515.9655366194725,522.5213273720856 C517.8864126194725,516.5977513720856 519.5215766194725,510.50017237208556 520.0734566194725,504.2797673720856 C520.8766136194724,495.24180137208555 519.8733656194725,481.6909023720856 508.7445696194725,479.9276013720856 C503.4500626194724,479.0882883720856 502.4319236194725,478.81472037208556 500.04199661947246,473.84584037208555 C497.45663161947255,468.4731223720856 493.35243461947243,463.49679837208555 494.3445146194724,457.3070993720856 C495.0620516194725,452.82207937208557 493.8512666194724,444.3349713720856 496.71396761947244,440.6148253720856 C498.03736161947245,438.89525737208555 500.6171426194726,437.86891337208556 502.3779456194725,436.6071533720856 C504.6217596194725,434.99738437208555 506.7827446194725,433.2740953720856 508.8739306194725,431.47171337208556 C510.63287261947244,429.95685637208555 512.7771056194724,426.9950683720856 514.7715036194725,425.90079837208555 C517.2079636194725,424.56273637208557 517.2824166194725,425.4746283720856 519.0320516194724,427.5645353720856 C521.6146246194726,430.6500793720856 525.7206826194724,439.7615543720856 530.4158466194725,438.9045623720856 M542.2258836194725,458.9838633720856 C540.7777816194725,461.9065703720856 537.4311386194724,464.6236353720856 535.2999346194724,467.06341237208557 C533.1557006194726,469.51714537208557 531.1268686194726,472.1104543720856 528.7350806194725,474.33435437208556 C526.1031826194725,476.78250437208555 516.7547336194725,482.6949133720856 518.8142776194725,474.73633037208555 C520.4168686194726,468.54570137208555 526.4140226194725,463.5321573720856 531.6927086194726,460.44289037208557 C532.7145696194725,459.84364737208557 544.6763036194725,454.0391763720856 542.2258836194725,458.9838633720856 M552.4528726194725,488.45472037208555 C553.3798066194724,492.59824637208555 553.8786386194724,496.86924937208556 554.6696976194726,501.0425513720856 C555.0754636194724,503.17619137208555 557.3192776194726,508.3302423720856 556.4044416194724,510.38199837208555 C554.8548976194725,513.8602153720856 540.9071426194726,509.74274437208555 538.0155916194725,508.5461183720856 C531.1333836194725,505.69692137208557 527.9738036194725,498.3831763720856 534.3208836194725,493.17422637208557 C536.7275626194726,491.2006323720856 551.5259386194725,484.31305637208555 552.4528726194725,488.45472037208555 M561.5965766194724,538.2179643720856 C562.3736756194726,542.1735273720856 564.6463396194724,545.8406353720856 560.8892776194725,548.8312693720856 C557.7697156194724,551.3138483720855 552.6585476194725,553.0082923720855 548.8149346194725,553.8922693720856 C543.5753356194725,555.0963383720856 541.8908466194725,552.1606053720856 539.1174896194725,548.3846283720856 C536.1356646194724,544.3239173720856 532.9611936194725,540.4009213720856 529.6675986194725,536.5886553720856 C540.0109196194726,534.2735663720855 550.3533106194725,531.9575473720856 560.6975626194725,529.6424583720856 C560.6910476194726,532.5242223720855 561.0409746194725,535.3938903720856 561.5965766194724,538.2179643720856 M536.8131826194725,556.5758363720855 C531.4190956194725,556.2966863720856 525.6155186194725,557.9204123720856 520.1451166194724,558.3475123720856 C513.3131646194724,558.8806903720856 506.50075561947256,559.6567283720856 499.66321961947256,560.1154663720856 C501.41471561947253,554.5259403720855 504.56126661947246,549.5412423720855 507.0228546194726,544.2615743720855 C509.49188661947255,538.9632963720856 511.2257006194725,538.3901073720856 516.9064306194725,537.9816163720856 C522.1702266194725,537.6029023720855 525.8826166194725,535.7912153720856 529.7671786194726,540.2566933720856 C533.8090226194724,544.9008293720856 537.4692956194725,549.9478713720856 541.1593506194724,554.8711573720856 C539.9038946194726,555.7114003720856 538.4036756194726,556.6586513720856 536.8131826194725,556.5758363720855 M498.25606561947257,557.7166323720855 C496.9252266194725,558.6862153720856 492.8210296194725,555.9300683720855 491.4380736194725,555.3959603720856 C488.7475436194725,554.3565893720855 488.1509926194725,554.0216083720856 486.7466316194725,551.3975933720856 C485.5405006194725,549.1411263720855 483.62148561947254,546.5766623720856 483.2436386194725,544.0010333720855 C482.7448066194725,540.6065623720856 484.2468866194725,536.1364313720856 484.7941136194725,532.7633613720856 C486.2505916194725,536.2750763720856 491.0313766194725,536.6826353720855 494.2616866194726,537.2567553720855 C496.7046606194725,537.6922303720855 503.9433106194725,536.9990063720855 505.7850806194725,538.7390453720856 C507.8204276194725,540.6614623720856 504.07360261947247,546.0220833720855 503.09734361947244,548.0412733720856 C501.9321606194725,550.4512733720856 500.49336561947257,556.0873233720856 498.25606561947257,557.7166323720855 M495.64836561947254,560.5016243720855 C494.0467046194725,560.7612343720856 489.4371606194725,562.3542533720856 489.52929561947246,559.4287553720856 C489.6325986194725,556.0873233720856 495.9750256194725,559.6920873720856 495.64836561947254,560.5016243720855 M487.5255916194725,560.3266903720855 C487.23336561947247,563.1405273720856 481.1785116194725,562.9069713720855 481.0398436194725,560.4318363720856 C480.8043866194725,556.2492303720855 487.9909196194725,555.8332963720856 487.5255916194725,560.3266903720855 M480.6024346194725,484.4470493720856 C479.05475161947254,488.85576737208555 469.6262666194725,490.43296837208555 466.0050806194725,491.7905703720856 C462.6984566194725,493.0299983720856 452.8195326194725,498.75258537208555 449.4096056194725,496.67663537208557 C460.9516136194725,488.7441073720856 472.7793326194725,480.9706933720856 482.5586756194725,470.8421803720856 C482.9588576194725,473.34430037208557 482.3492776194725,475.43420737208555 481.61126661947253,477.80233437208557 C480.9458466194725,479.93969737208556 481.2883286194725,482.4939253720856 480.6024346194725,484.4470493720856 M477.7322886194725,500.52426137208556 C476.0710656194725,511.3236663720856 474.4414856194725,522.2654393720856 472.1939496194725,532.9569063720855 C467.91106561947254,531.6486203720856 464.3792226194725,528.9957593720856 459.8794966194725,528.0717713720855 C455.7734386194725,527.2287363720856 451.5315036194725,527.2082653720856 447.3919416194725,527.8242573720856 C438.5693136194725,529.1362653720855 430.7043326194725,533.5003193720856 423.00686861947247,537.7527133720855 C422.2958466194725,530.3468483720856 420.8235476194725,522.4208323720856 420.9975806194725,514.9889133720856 C421.1418326194725,508.81503337208557 431.7066496194725,506.9875273720856 436.49860261947254,504.43702237208555 C439.3975986194725,502.8942493720856 442.0192596194725,500.7243193720856 445.32216061947247,500.1864893720856 C448.7209196194725,499.6319103720856 452.0005546194725,499.6486593720856 455.35836561947247,498.61301037208557 C463.2959386194725,496.1639293720856 470.7663216194725,492.28094437208557 478.5428906194725,489.38708337208556 C479.1785296194725,493.0942033720856 478.2953356194725,496.8711103720856 477.7322886194725,500.52426137208556 M470.3149526194725,546.2295853720856 C469.9622336194725,548.6842493720856 470.40708761947246,553.0650523720856 468.53646761947255,554.9362923720855 C466.7747336194725,556.6986623720856 463.0120876194725,556.7563543720855 460.6891676194725,557.2337013720855 C453.6124526194725,558.6899373720855 446.5422516194725,560.1601303720855 439.47577361947253,561.6619603720856 C436.3143326194725,562.3337823720856 433.1519596194725,562.9758293720856 429.9774896194725,563.5760023720856 C428.4633106194725,563.8616663720856 424.66529961947253,565.3141803720856 423.3902996194725,564.1091803720856 C422.1804456194725,562.9646623720856 423.08132161947253,559.3096513720856 423.1464676194725,557.7761843720856 C423.2767596194725,554.7129713720856 423.4498616194725,551.6404543720855 423.2572156194725,548.5763113720856 C422.8886756194725,542.6983303720856 423.2162666194725,540.4474463720856 428.6866676194725,537.4065663720855 C434.4986206194725,534.1749333720855 440.5013576194725,531.9631303720855 447.0429456194725,530.7655743720856 C453.6664306194725,529.5531303720855 459.9762846194725,530.2165783720856 466.28055461947247,532.7587093720856 C468.0348436194725,533.4658903720856 470.6658106194725,534.3377713720856 471.4829276194725,536.2294813720855 C472.5932006194725,538.8032493720856 470.68907661947253,543.6213883720856 470.3149526194725,546.2295853720856 M462.3475986194725,640.9751533720855 C459.7538576194725,642.6016703720856 454.1094236194725,642.3243813720856 451.1294596194725,642.6547093720856 C446.3179636194725,643.1860253720856 441.47575561947247,642.8826823720856 436.69590161947247,642.1401413720856 C433.09798161947253,641.5818403720856 427.7280916194725,640.8085933720856 424.9705546194725,638.2822803720856 C421.0524896194725,634.6933343720856 425.57362061947254,634.5286353720855 428.5721976194725,634.7808013720855 C437.2896606194725,635.5140373720856 446.1169416194725,635.0022613720856 454.8260296194725,634.3723113720856 C456.52168661947246,634.2494853720856 461.07911361947254,632.7606823720856 462.7142776194725,633.4576283720855 C464.8045326194725,634.3481183720855 464.1642406194725,639.8362183720856 462.3475986194725,640.9751533720855 M457.40487961947247,698.9789213720856 C441.1630546194725,697.4007903720856 431.74666761947253,683.9513153720856 425.8565406194725,670.2022183720856 C422.6950986194725,662.8205473720856 423.8351536194725,655.0750493720856 423.5233836194725,647.2690683720856 C423.46661361947247,645.8435393720856 422.57132161947254,642.3048403720856 424.0371056194725,641.2403463720856 C425.4144786194725,640.2391263720856 430.9863216194725,643.3330453720856 432.4930546194725,643.7024543720855 C440.2184386194725,645.5960253720856 448.76186861947247,645.7774733720855 456.50400361947254,643.9378713720856 C459.8580916194725,643.1413613720856 461.73615761947246,641.6600023720856 462.8017596194725,644.9837553720856 C463.6598246194725,647.6608093720856 462.2517406194725,652.5934003720856 462.0981826194725,655.3988633720855 C461.8329456194725,660.2514313720856 462.5932926194725,699.4823233720856 457.40487961947247,698.9789213720856 M424.9593866194725,698.9938093720856 C424.8970326194725,696.6377783720856 423.7085846194725,672.8308863720856 424.86166761947254,672.7592383720855 C428.28834661947246,680.1511453720856 431.8080916194725,686.7632923720855 438.04628461947254,692.2011453720855 C441.2328546194725,694.9805543720855 444.8158836194725,697.4845353720856 448.8009566194725,698.9761303720855 C450.2983836194725,699.5362923720855 458.7822516194725,699.9615313720856 459.1982556194725,701.8188133720855 C459.92509861947246,705.0699873720856 454.1336206194725,703.7579793720855 452.4156276194725,703.4937173720856 C451.03732461947254,703.2806323720856 449.7967596194725,702.6934853720855 448.4445146194725,702.4478323720856 C445.8684566194725,701.9807203720856 443.4338576194725,702.6088093720856 440.84663161947253,702.6609173720856 C436.9155366194725,702.7409403720856 433.0551716194725,702.3287283720856 429.1222156194725,702.6692923720856 C425.52708761947247,702.9791493720855 425.05524461947255,702.5660063720856 424.9593866194725,698.9938093720856 M427.35675961947254,592.2112693720856 C441.2607736194725,587.7169443720855 452.8809566194725,596.2282463720856 460.2191866194725,607.3682153720856 C464.4034196194725,613.7207513720856 465.33873061947247,618.1629683720855 464.6072336194725,625.6851453720856 C464.3447886194725,628.3780183720855 464.8287306194725,630.2008713720855 462.3531826194725,631.2979333720856 C459.90276261947247,632.3847593720856 454.3355736194725,631.5789443720855 451.6841316194725,631.7027013720856 C444.0592596194725,632.0590833720855 436.46323761947247,632.5327093720856 428.8383656194725,632.0804853720856 C423.8854086194725,631.7873773720855 423.1855546194725,630.9480643720856 423.2711756194725,626.1401613720856 C423.3735476194725,620.3524393720855 422.8923976194725,614.5907713720856 422.5648066194725,608.7937443720856 C422.2102266194725,602.5221613720855 420.05668661947254,594.5700913720856 427.35675961947254,592.2112693720856 M422.80677761947254,583.8749023720856 C422.81515361947254,579.6225083720856 422.56015361947254,575.2593843720856 422.8198066194725,571.0135043720855 C423.07852961947253,566.8039133720856 424.87004361947254,567.0123463720855 428.8439496194725,566.2939983720855 C437.4497336194725,564.7381993720855 446.04435061947254,562.9972303720856 454.5338036194725,560.8877823720856 C457.89161361947254,560.0540523720856 461.6859016194725,558.4535893720856 465.18424061947246,558.4404853720856 C468.8547516194725,558.4266053720855 468.6602446194725,560.3136623720856 468.41548161947253,563.5639063720856 C467.8710476194725,570.7631993720855 466.5523066194725,577.8564153720856 466.1511936194725,585.0175583720855 C465.7184386194725,592.7463073720855 465.4913576194725,600.5746203720855 465.5257926194725,608.3117443720856 C465.5378906194725,610.9236623720856 466.1725986194725,612.8581763720856 463.9464676194725,610.4137473720856 C461.71661361947247,607.9655973720855 460.6258836194725,604.0640023720856 458.6352086194725,601.3125083720855 C454.5580006194725,595.6783193720855 448.4984926194725,591.1458443720855 441.7735656194725,589.2373843720856 C438.05559161947247,588.1821953720855 434.1449706194725,587.9988863720856 430.3544056194725,588.7628293720855 C429.20411361947254,588.9945233720856 423.4433466194725,591.7441573720856 422.7099896194725,591.2007443720855 C422.2139496194725,590.8331953720856 422.8058466194725,584.0470453720856 422.80677761947254,583.8749023720856 M473.6727626194725,731.2598943720856 C479.1878356194725,735.2089443720856 485.2948066194725,738.3996353720855 491.4771606194725,741.1697403720857 C494.95595661947254,742.7283303720856 508.7259566194725,746.0083503720856 509.1652266194725,749.5163423720855 C509.39975161947245,751.3875813720856 507.11778161947245,753.4849333720856 505.62314661947244,753.7063923720856 C503.7273976194725,753.9874043720856 500.6031826194725,752.7489063720856 498.6720696194725,752.5144193720856 C491.6493326194725,751.6620793720856 484.6405546194725,751.6564963720856 477.7881276194725,749.7015123720855 C464.1074706194725,745.7971263720856 449.9233286194725,744.6972733720855 436.1002816194725,741.2934963720855 C432.8113396194725,740.4839603720856 429.5149526194725,739.7246703720856 426.2092596194725,738.9914353720856 C423.0692226194725,738.2944893720855 421.6620696194725,738.4135933720855 421.5513216194725,735.0582033720856 C421.3065586194725,727.6932803720856 423.4191496194725,720.1478403720856 423.4359016194725,712.6917283720855 C434.61867561947247,713.9683773720856 445.83960561947254,713.9516283720856 457.0530916194725,715.0021643720855 C461.8580736194725,715.4515973720855 461.74639461947254,716.3625583720856 463.85154061947253,720.5609833720856 C466.0376536194725,724.9166623720856 469.75562761947253,728.4553613720856 473.6727626194725,731.2598943720856 M419.14836561947254,491.9859753720856 C419.0069056194725,489.25960537208556 418.8961576194725,486.52579037208557 418.6495326194725,483.80686337208556 C418.48387661947254,481.98028837208557 416.8152086194725,476.8746243720856 417.7561026194725,475.4518863720856 C418.8738216194725,473.76302537208556 419.9999166194725,474.7940223720856 421.9998976194725,474.74656637208557 C424.6364496194725,474.68422237208557 426.8439676194725,473.62438137208557 429.0179816194725,472.23700237208556 C433.1352086194725,469.61112637208555 436.1961386194725,466.15431137208554 438.8680546194725,462.11965537208556 C441.2188946194725,458.56885937208557 440.7814856194725,453.71815337208557 440.75263561947247,449.46669037208557 C440.6781826194725,438.4728093720856 441.4794786194725,427.74970537208554 440.80847461947246,416.70743937208556 C440.5004276194725,411.6352733720856 444.8298436194725,414.74594037208556 448.32632161947254,415.4028753720856 C454.04520861947253,416.4766743720856 460.2610656194725,415.7332033720856 466.07301861947246,415.74716137208554 C465.85710561947246,417.0991803720856 453.9716866194725,420.45550037208557 452.0517406194725,421.73307937208557 C447.13601161947247,425.00193337208555 444.26958761947253,430.2322843720856 444.71816461947253,436.19494037208557 C445.6199706194725,448.1909713720856 458.8315766194725,450.19620337208556 468.4852816194725,450.21946637208555 C460.4760476194725,457.3015163720856 452.61013561947254,464.05323837208556 446.3151716194725,472.7897203720856 C441.67398561947255,479.2315853720856 433.49909561947254,491.9320063720856 441.0867406194725,499.0587203720856 C434.3794966194725,502.86819537208555 427.7318136194725,507.10570137208555 420.14602961947253,508.9387903720856 C419.8063396194725,503.28878237208556 419.44245261947253,497.63877437208555 419.14836561947254,491.9859753720856 M416.1032556194725,273.0072343720856 C418.8338036194725,274.7612303720856 419.9822336194725,272.28144237208556 422.0603906194725,270.9973503720856 C424.9873066194725,269.1875233720856 425.9561206194725,269.3652493720856 426.3274526194725,265.3240793720856 C427.0142776194725,257.82888637208555 423.8612116194725,251.04459737208558 419.90219761947253,244.91072837208557 C418.1032376194725,242.12294437208558 416.3080006194725,238.80291337208558 413.76823761947253,236.62367837208558 C411.45276261947254,234.63705637208557 409.1121606194725,235.32097537208557 406.9669966194725,233.26735737208557 C406.1247516194725,232.45968237208558 406.3052996194725,231.31981737208557 404.9130366194725,231.35238437208557 C403.9963396194725,231.37378637208556 401.7683466194725,234.21367837208558 401.0107926194725,234.84083637208556 C398.6190036194725,236.82094437208556 395.69301861947247,238.32835737208558 392.5585656194725,236.69532737208556 C387.9946246194725,234.31882537208557 389.4604086194725,225.69307237208557 393.0052816194725,222.89877437208557 C395.73489761947246,220.74745437208557 398.96055461947253,221.07964337208557 402.06801861947247,220.73256637208556 C404.3983836194725,220.47295637208558 404.8832556194725,220.57438137208558 403.9246786194725,217.90756237208558 C403.25274461947254,216.04004537208556 401.7041316194725,214.58287937208556 400.9391316194725,212.75630337208557 C399.4686936194725,209.24924237208558 399.78883961947247,204.98661237208557 399.15413161947254,201.27484037208558 C398.5836386194725,197.94922637208558 397.2500076194725,194.35190637208558 397.29840161947254,190.97418437208557 C397.3616866194725,186.67340437208557 398.7669786194725,185.55587137208556 402.4933286194725,184.34994037208557 C406.1033466194725,183.18216137208557 409.0926166194725,180.60746237208556 412.16750761947253,178.44404537208558 C415.6481646194725,175.99496437208558 419.4601356194725,174.37775137208558 423.03664961947254,172.14175537208558 C425.4647336194725,170.62317637208557 427.0319596194725,167.55345037208556 429.7020146194725,168.98735437208558 C432.8746246194725,170.69110337208556 436.22964261947254,175.62369337208557 438.9276166194725,178.14442337208558 C434.9797706194725,180.65026537208558 434.0621426194725,181.74639637208557 434.6056466194725,186.65200237208558 C435.10540861947254,191.14911837208558 436.0211756194725,195.15679037208557 439.45902261947253,198.28979037208558 C440.77962461947254,199.49385937208558 443.2430736194725,200.45785937208558 444.26679561947253,201.84616837208557 C445.4608286194725,203.46338137208556 444.68466061947254,202.03785237208558 444.5338946194725,203.86349637208556 C444.4538576194725,204.84796837208557 443.6748976194725,205.49187537208556 443.8442776194725,206.62987937208558 C444.6018326194725,211.68436537208558 450.4082006194725,208.70117637208557 452.8009196194725,206.94531937208558 C461.3499346194725,200.67187537208557 445.3873066194725,195.68996837208556 441.5958106194725,193.40465537208559 C438.97787261947246,191.82559337208556 437.6833286194725,186.78599537208558 441.8312666194725,188.12498737208557 C444.5906646194725,189.01547737208557 450.82420461947254,196.56557037208557 451.4570516194725,189.68357837208558 C458.29924061947247,193.65775137208558 462.5216316194725,202.10205637208557 468.2591316194725,207.44127637208558 C472.3959016194725,211.29169337208558 477.9537846194725,215.56269737208558 474.6694966194725,221.71238437208558 C470.4852626194725,229.55093337208558 462.18659561947254,233.10917237208557 454.6110476194725,236.49154737208556 C447.2625806194725,239.77156637208557 448.78885761947254,249.05425337208558 452.7162306194725,254.73589837208556 C454.98703261947253,258.02057037208556 457.9623436194725,259.9448483720856 461.54164961947254,261.54065937208554 C465.1982006194725,263.17182937208554 465.9576166194725,265.0877323720856 466.75612061947254,268.8711533720856 C467.64303661947247,273.06771737208555 466.7012116194725,274.75936937208553 463.0669966194725,276.9274393720856 C459.5193326194725,279.0452613720856 455.80973361947247,281.09608737208555 452.0219596194725,282.7533113720856 C443.8312486194725,286.3376053720856 435.3343506194725,286.56371737208553 426.6224706194725,287.7854663720856 C423.5689856194725,288.21349637208556 420.6411386194725,289.10491737208554 418.9752626194725,286.0779953720856 C417.10185061947254,282.67142737208553 416.9641136194725,276.80461237208556 416.1032556194725,273.0072343720856 M414.7863766194725,256.7048403720856 C412.7361386194725,255.62452737208557 407.78690561947246,259.21347337208556 405.1950256194725,259.3707283720856 C401.0024166194725,259.6247553720856 398.24953261947246,259.52891337208564 394.5278356194725,261.7528133720856 C387.49206961947255,265.9568213720856 381.6540586194725,271.36955137208554 376.0124166194725,277.2391573720856 C369.6578906194725,283.8503733720856 363.3396606194725,290.4960183720856 357.0065406194725,297.12677437208555 C354.1363946194725,300.13043537208557 351.2513576194725,303.1182763720856 348.3356096194725,306.07634237208555 C346.0378176194725,308.40818037208555 343.7912116194725,311.68726937208555 340.9471246194725,313.3510063720856 C341.09509861947254,311.3746203720856 342.3068136194725,309.9760763720856 342.7367776194725,308.1439173720856 C342.9871246194725,307.0729103720856 342.5497156194725,306.16380937208555 342.7116496194725,305.1383963720856 C342.7646976194725,304.8052763720856 343.6590586194725,303.64773237208556 343.7949346194725,303.2680873720856 C344.1578906194725,302.26593737208555 344.6018136194725,301.27588337208556 345.0327086194725,300.23558137208556 C345.43475161947254,299.2641373720856 345.3761206194725,298.25733437208555 345.7837486194725,297.2430873720856 C346.2034746194725,296.1972033720856 347.3519056194725,295.5049103720856 347.7502266194725,294.47484437208556 C348.9182006194725,291.4600183720856 346.9852266194725,290.06240437208555 343.8935846194725,290.1331223720856 C345.1034386194725,284.10067837208555 345.6320516194725,281.1500563720856 351.9391136194725,279.02292937208557 C357.9651166194725,276.99071337208557 363.8515226194725,274.7091223720856 369.3870696194725,271.53331937208554 C374.30186861947254,268.71389837208557 378.4023436194725,264.65039637208554 383.1272886194725,261.5080913720856 C387.35712461947253,258.69425337208554 392.6227816194725,255.74642337208556 392.5790406194725,249.97638137208557 C394.9773436194725,251.60289837208558 397.2248796194725,252.97166637208556 399.9684566194725,251.35259337208558 C402.28393061947247,249.98475537208557 402.59104761947253,248.88397137208557 405.2676166194725,248.62622237208558 C407.4527996194725,248.41685937208558 408.8069056194725,248.36102937208557 410.7566316194725,249.32223837208556 C413.0516316194725,250.45186737208556 413.3652626194725,251.23814137208558 414.7016866194725,247.91066637208556 C416.2205186194725,249.18917637208557 420.06040861947247,254.51443937208558 419.9319786194725,256.62202537208555 C419.8621786194725,257.7832923720856 419.68628461947253,258.3071643720856 418.2474896194725,258.6133003720856 C416.2065586194725,259.04691337208556 416.2856646194725,257.49483637208556 414.7863766194725,256.7048403720856 M405.2257376194725,571.8602613720856 C404.2280736194725,573.3890763720856 400.0224346194725,573.1071343720856 398.3984386194725,573.0866623720856 C393.44734361947246,573.0224583720856 391.7163216194725,568.8668363720856 389.54416761947255,564.8517203720855 C386.11935061947247,558.5215163720856 381.0007376194725,545.3716623720856 386.6191136194725,538.7278793720856 C391.0536936194725,533.4845003720856 399.6911206194725,540.0910643720856 402.7166866194725,544.0512803720856 C405.3290406194725,547.4727363720856 404.5528726194725,552.6044543720856 404.79577361947247,556.7098293720856 C405.0005186194725,560.1703653720856 407.1968686194725,568.8426433720856 405.2257376194725,571.8602613720856 M391.6995696194725,574.1530183720856 C389.7200626194725,576.1321953720856 383.2957376194725,575.7134693720856 380.6731466194725,576.1387093720856 C375.9919416194725,576.8961373720856 371.33679561947247,577.8070993720855 366.79518961947247,579.1898253720856 C363.4141136194725,580.2189603720856 360.0721246194725,582.9881343720856 359.1805546194725,578.2751413720856 C358.4323066194725,574.3130643720856 358.8045696194725,569.5600603720856 358.8762306194725,565.5607633720856 C358.9534746194725,561.2460253720856 359.4048436194725,556.9861883720856 359.77989761947254,552.6909913720856 C360.0339676194725,549.7859643720856 359.3983286194725,544.4420913720855 361.7696426194725,542.2126083720856 C363.8133656194725,540.2911223720855 368.7821426194725,540.1059523720855 371.4354456194725,539.4694893720855 C375.7918506194725,538.4245353720855 380.3436936194725,537.0520453720856 384.8722706194725,537.5200873720855 C382.2301356194725,544.6914663720856 382.0058466194725,552.2117823720856 384.8387666194725,559.3580373720856 C385.6465766194725,561.3976973720855 392.9224526194725,572.9303383720855 391.6995696194725,574.1530183720856 M358.40624861947254,545.5838173720856 C357.3024896194725,556.3711263720855 356.1922156194725,567.2263613720855 357.2550256194725,578.0676393720855 C357.3192406194725,578.7143383720855 358.0916866194725,581.6761263720856 357.75571961947253,582.1395163720856 C357.4085846194725,582.6196553720856 354.6594236194725,582.8680993720856 354.0349526194725,583.0151183720856 C351.5556826194725,583.6031953720856 349.0801356194725,584.2266323720855 346.5850436194725,584.7486433720856 C341.7288766194725,585.7638213720855 341.09509861947254,582.6959563720856 340.1421056194725,578.1951183720855 C338.1011756194725,568.5523273720855 342.0583286194725,558.0972073720856 344.4557006194725,548.8359213720855 C345.6236756194725,544.3257783720856 346.4891866194725,543.8065583720856 350.92376661947253,543.4324963720856 C354.0098246194725,543.1728863720856 358.8752996194725,541.0001643720856 358.40624861947254,545.5838173720856 M339.6535116194725,585.8289563720856 C337.7977816194725,587.5168863720855 335.94298201947254,579.5527203720856 335.7791863194725,578.7413233720856 C335.1305185194725,575.5180643720855 335.4916134194725,572.2492113720856 335.5009199194725,568.9757053720856 C335.5167411194725,563.8625973720856 335.12586521947253,558.7727513720856 335.1184199194725,553.6838363720856 C335.11376661947247,550.9314123720856 333.0514309194725,545.3037363720855 336.3087301194725,543.8475003720855 C337.2645146194725,543.4204003720856 341.0615956194725,543.5981263720855 341.9233836194725,544.1601493720856 C343.7130366194725,545.3288593720856 343.0075986194725,546.0862883720856 342.47712461947253,548.1194353720855 C341.2896056194725,552.6826163720856 340.2630916194725,557.2681303720856 339.22913161947247,561.8694623720855 C338.2147156194725,566.3805353720855 337.2142596194725,570.7213273720856 337.69727061947253,575.3803503720856 C337.8564126194725,576.9212613720856 340.8363766194725,584.7532963720855 339.6535116194725,585.8289563720856 M398.8377086194725,535.5669643720855 C403.3616316194725,534.2921763720856 403.6036026194725,537.7582963720856 403.5961576194725,541.0755353720856 C402.9065406194725,540.5470103720857 396.4775626194725,536.2322733720855 398.8377086194725,535.5669643720855 M338.3245326194725,292.06856637208557 C337.2161206194725,293.89514137208556 330.1952447194725,294.3938903720856 328.1887484194725,294.8749603720856 C324.2418323194725,295.82035037208556 320.2930550194725,296.75922637208555 316.3563761194725,297.7436973720856 C308.9809199194725,299.58795237208557 301.78694181947253,301.66855437208557 294.2262849194725,302.63348537208554 C298.3779455194725,295.9859793720856 299.6696973194725,290.24571337208556 298.8972520194725,281.95028837208554 C297.9228542194725,271.4765583720856 296.6841498194725,261.1089063720856 294.2728177194725,250.85663537208558 C291.8959199194725,240.74673237208557 289.1439674194725,230.70475537208557 286.4934564194725,220.66277837208557 C285.1914674194725,215.72925737208558 283.7833834194725,210.88971737208558 282.0514309194725,206.08925737208557 C280.6628907194725,202.24163237208558 278.4944601194725,197.39836937208557 280.8508834194725,193.45397137208556 C286.8312849194725,197.81709537208556 291.6278907194725,202.51799137208556 295.0387484194725,209.14595637208558 C298.6934382194725,216.25126937208557 301.8837301194725,223.54547337208558 306.1247338194725,230.34279037208557 C308.0642228194725,233.45066637208558 310.3285112194725,236.28497537208557 312.4029455194725,239.29328837208558 C313.6369966194725,241.08357437208556 314.53601121947247,243.66571737208557 316.1078907194725,245.17592137208558 C317.9198798194725,246.91596037208558 319.8519236194725,247.73666237208556 320.8877447194725,244.79999837208558 C321.99894911947246,241.64838837208558 318.4540769194725,235.41216437208558 317.40801851947253,232.45223837208556 C314.8812849194725,225.30691337208557 312.3759564194725,218.17647737208557 310.42716081947253,210.84691337208557 C308.8506279194725,204.92240837208558 306.24478851947254,197.75940437208558 307.1670696194725,191.50829237208558 C308.0800440194725,185.31952337208557 312.2791681194725,189.74871337208558 314.4038579194725,192.62582537208556 C318.7844601194725,198.5577743720856 321.4070513194725,205.47233437208558 324.2846425194725,212.19707237208556 C326.9295696194725,218.37560537208557 330.0146973194725,224.26568237208556 332.9416134194725,230.30091737208556 C333.9597520194725,232.40106037208557 335.3017593194725,237.82588637208556 337.9690226194725,238.45025337208557 C341.8461386194725,239.35935437208556 341.5176166194725,233.89916837208557 341.1472156194725,231.68364337208558 C338.6902816194725,216.99753137208558 332.2761936194725,202.93485637208556 330.9453542194725,187.99378637208557 C330.8811389194725,187.28009137208556 329.95420461947253,181.72871737208558 330.6996608194725,181.26532737208558 C332.1449710194725,180.36646237208558 334.0946973194725,185.99785937208557 334.71823741947253,187.37779437208556 C337.9615766194725,194.55475537208557 340.22028161947253,202.12066637208557 342.2928546194725,209.70239637208556 C344.05551861947254,216.14984437208557 345.6497336194725,222.64660837208558 347.6283106194725,229.03264337208557 C348.7153176194725,232.54342737208557 349.9614676194725,235.99558937208556 351.1899346194725,239.45798737208557 C352.3011386194725,242.59470937208556 353.4290956194725,247.95533037208557 356.3271606194725,250.02197537208554 C360.43880361947254,252.95398737208558 375.1524896194725,245.98266637208556 376.6434016194725,252.21516837208557 C377.7043506194725,256.6452883720856 364.0609196194725,260.2128323720856 361.1554086194725,261.5583383720856 C357.3304086194725,263.32908337208556 353.5780006194725,265.26824937208556 349.7511386194725,267.0408563720856 C346.8540036194725,268.38170937208554 342.69024461947254,268.93163537208557 340.5944056194725,271.4551573720856 C338.3738576194725,274.1284893720856 338.0183466194725,277.8821343720856 337.95227061947253,281.19844237208554 C337.9010846194725,283.7080063720856 339.6404816194725,289.9023573720856 338.3245326194725,292.06856637208557 M329.02633961947254,340.4425703720856 C328.8318323194725,341.83460137208556 327.7252812194725,343.67792537208555 327.2273798194725,345.00296037208557 C326.2138944194725,347.7023463720856 325.3521061194725,350.9274663720856 323.9421608194725,353.4491263720856 C322.7295148194725,355.62091737208556 320.9398615194725,357.56287537208556 319.7681644194725,359.76723437208557 C318.6569601194725,361.85900237208557 318.50898561947247,364.27086337208556 317.2107192194725,366.36542337208556 C315.7253907194725,368.7586743720856 313.2703177194725,370.4801033720856 311.7952265194725,372.85846637208556 C311.0683834194725,374.03182937208555 310.3173433194725,375.37175137208555 309.2898980194725,376.62141537208555 C305.6519601194725,381.04781337208556 302.0400805194725,385.2239063720856 299.1140951194725,389.96574437208557 C298.3658469194725,391.1800493720856 294.7111571194725,396.47925737208556 293.2565404194725,396.7658523720856 C290.2160842194725,397.36323437208557 293.75537251947253,393.0410523720856 294.3500623194725,392.1468403720856 C298.6580732194725,385.6817133720856 302.4840039194725,378.8750913720856 306.6421790194725,372.3094693720856 C310.6700623194725,365.95228037208557 314.7919418194725,359.6444083720856 318.6681279194725,353.1913773720856 C321.8295696194725,347.9303193720856 324.0156827194725,340.3774353720856 329.1538396194725,336.6712463720856 C329.1733834194725,337.93114537208555 329.1315039194725,339.18825337208557 329.02633961947254,340.4425703720856 M469.50062761947254,281.02350837208553 C472.0031646194725,291.31113737208557 474.9961576194725,301.2805353720856 477.8169786194725,311.4760453720856 C480.4349166194725,320.93645837208555 483.9183656194725,331.0603193720856 485.00351161947253,340.8129103720856 C486.07841961947247,350.4743113720856 488.5483836194725,360.2492343720856 491.8698976194725,369.4193303720856 C493.40548161947254,373.6624193720856 494.98480661947247,377.92132737208556 496.6516136194725,382.1150993720856 C497.5673796194725,384.4190223720856 498.5911026194725,386.67083637208555 499.6306466194725,388.92079037208555 C500.4375256194726,390.6692033720856 502.56966061947253,393.49979037208556 502.6515586194726,395.3524193720856 C502.71670461947247,396.83563937208555 503.23228861947246,396.2429103720856 501.76836561947243,397.35765137208557 C500.2523246194726,398.5124043720856 497.6260116194725,398.09274737208557 495.8605546194725,398.29652737208556 C491.2556646194725,398.82877437208555 486.76524461947247,400.56136937208555 482.27575561947253,401.68355437208555 C473.6178546194725,403.8469713720856 463.29779961947247,405.56467837208555 454.4258466194725,404.0591263720856 C450.6939126194725,403.4254543720856 446.8177266194725,402.87645837208555 443.1276716194725,402.05110337208555 C438.58699661947253,401.0349953720856 437.65354761947253,399.15631137208555 436.7219596194725,394.6936243720856 C434.6838216194725,384.93731137208556 432.9286026194725,375.2061223720856 431.24597461947246,365.38467437208556 C429.2450626194725,353.70222237208554 427.0794236194725,342.03279837208555 425.53546361947247,330.2777673720856 C423.97568261947254,318.38595237208557 422.8551716194725,306.4820413720856 420.4112666194725,294.7195663720856 C430.2697156194725,296.36841537208556 439.5539496194725,298.2303503720856 449.4412486194725,295.52910337208556 C458.1968686194725,293.1367823720856 464.5178906194725,288.4610103720856 469.50062761947254,281.02350837208553 M508.0921786194725,408.3896823720856 C510.29597461947253,412.9323923720856 504.98378461947254,417.01636537208555 502.4095876194725,420.51505237208556 C499.0145516194725,425.1266203720856 495.8438036194725,429.94475937208557 491.8950256194725,434.1161993720856 C490.7102996194725,429.3762223720856 489.6707556194725,424.04258537208557 486.5102446194725,420.1493653720856 C482.47305461947246,415.17769337208557 477.7611386194725,417.2089793720856 472.8156276194725,414.8576013720856 C478.0021786194725,412.33407937208557 484.6247336194725,413.2971493720856 490.1267776194725,411.0471953720856 C495.5543686194725,408.8279483720856 501.03407661947244,407.0860493720856 506.0838216194725,404.2033543720856 C506.7548246194725,405.59817637208556 507.41745261947244,406.9967203720856 508.0921786194725,408.3896823720856 M488.8573616194725,514.3719913720856 C485.5423616194725,514.5562303720856 487.7601166194725,507.56536937208557 487.97509861947253,505.82812237208555 C488.5669966194725,501.05278637208556 489.1654086194725,496.27838137208556 489.6837846194725,491.4946703720856 C492.41898561947255,498.70699137208555 495.1532556194725,505.9193113720856 497.8865956194725,513.1307013720856 C494.8815036194725,513.5596623720855 491.8959566194725,514.2035703720856 488.8573616194725,514.3719913720856 M483.4651356194725,548.9457203720856 C483.9174346194725,549.9506623720856 486.0263036194725,553.3004693720856 484.3613576194725,553.9183233720855 C482.07938661947253,554.7641493720856 481.80484361947254,549.2164963720855 483.4651356194725,548.9457203720856 M479.50984361947246,471.2488093720856 C468.9496786194725,479.68008737208555 458.4630366194725,488.1327673720856 447.0373616194725,495.3916123720856 C444.5338946194725,496.98184037208557 442.0127446194725,497.64714937208555 440.35338361947254,494.4936783720856 C439.04953261947253,492.0138903720856 440.4269056194725,489.22052337208555 441.2635656194725,486.7928443720856 C443.3966316194725,480.60407637208556 447.1127446194725,475.2239133720856 451.2309016194725,470.18710737208556 C459.45604761947254,460.1283813720856 469.24562761947254,451.53705637208554 481.7369056194725,447.5712573720856 C483.7806276194725,446.9217673720856 486.9355546194725,444.96399137208556 487.65123061947247,447.6680293720856 C488.0728176194725,449.25825737208555 486.28874861947247,453.22963937208556 485.9267226194725,454.72216437208556 C484.4348796194725,460.8858093720856 484.76060961947246,467.05875937208555 479.50984361947246,471.2488093720856 M509.9078906194725,532.7373073720855 C510.1405546194725,539.8965893720856 490.5697706194725,534.1218943720855 488.1314496194725,532.8424543720855 C490.6898246194725,531.9845313720856 509.8027266194724,529.5187013720856 509.9078906194725,532.7373073720855 M517.1753906194725,532.7819713720855 C518.3377816194725,533.0918293720856 522.7974896194726,533.4854313720855 521.1316136194725,535.0095933720856 C519.6407006194725,536.3737093720856 512.8887846194725,535.8265743720856 511.0991316194725,535.9940643720856 C512.3015406194725,532.0440833720857 513.2145146194725,531.7277133720856 517.1753906194725,532.7819713720855 M513.5495516194725,523.1922183720856 C513.1121426194725,524.7852383720856 512.9343866194724,527.2147783720856 511.5067596194725,528.3062573720856 C509.7282736194725,529.6666513720857 505.94887661947246,528.8403653720856 503.93586561947245,528.8515313720856 C500.5166316194725,528.8692113720856 497.10112061947257,529.0441453720855 493.6986386194725,529.3837783720855 C492.39664961947256,529.5131183720855 487.1235476194725,531.1024153720855 485.90345661947254,530.0183813720855 C485.0072336194725,529.2218713720856 485.3413396194725,525.4859063720855 485.9937306194725,524.6465933720856 C487.3338766194725,522.9205123720856 490.41993461947254,523.5178943720855 492.3538396194725,523.4490373720855 C499.43055461947256,523.1959403720855 506.4691136194725,523.1754693720856 513.5495516194725,523.1922183720856 M509.0060846194725,496.7296743720856 C508.0074896194725,495.2455233720856 507.8288036194725,495.26134237208555 507.4025626194725,493.01883237208557 C506.9474706194725,490.61906837208556 505.78880361947245,488.5663813720856 505.10756261947245,486.2475703720856 C503.6092046194725,481.14469737208555 508.3974346194725,481.5978523720856 511.9097336194725,483.4690913720856 C521.0208656194725,488.32352037208557 518.8217226194724,505.28470937208556 516.5686026194726,513.2256123720856 C513.2926896194725,510.81747337208554 512.0837666194725,509.72506437208557 510.9567406194725,505.83928837208555 C510.52863861947253,504.3625813720856 510.0484196194725,502.9119293720856 509.6026356194725,501.44359737208555 C509.2750436194725,500.3623543720856 509.50305461947255,497.46942337208554 509.0060846194725,496.7296743720856 M509.79528161947246,414.17740437208556 C512.3387666194725,413.8703383720856 514.6663396194725,421.7628563720856 513.9394966194725,423.4712573720856 C512.4523066194724,426.96529237208557 506.7687846194725,430.08619537208557 503.87444161947246,432.31660837208557 C501.9470516194725,433.80075937208557 500.0326896194724,435.5035783720856 497.9731466194726,436.79790637208555 C496.06064661947244,437.99918437208555 494.9606096194725,437.32550037208557 493.18212461947246,437.90241237208556 C490.6088576194725,438.7352113720856 489.98531761947254,441.4578593720856 487.3515586194725,442.6284313720856 C483.6456826194725,444.2754193720856 479.1543326194725,444.7360183720856 475.2837306194725,446.2229603720856 C470.5876356194725,448.0272033720856 466.28334661947247,448.07652037208555 461.35924061947253,447.2213883720856 C454.27787261947253,445.9921953720856 445.9773436194725,442.4786203720856 446.6157736194725,433.87426937208556 C447.7409386194725,418.69219937208555 477.89143061947254,410.91320337208555 486.11378461947254,423.78576737208556 C488.2542956194725,427.1365043720856 488.2207926194725,431.04182137208556 489.6102626194725,434.64100237208555 C491.11513561947254,438.53608337208556 492.5744056194725,437.0054083720856 494.8377626194725,434.1366703720856 C497.79911361947256,430.38302537208557 500.5501356194725,426.42839237208557 503.39515361947247,422.5854193720856 C504.3155736194725,421.34319937208556 507.95909561947246,414.40072437208556 509.79528161947246,414.17740437208556 M325.02172281947253,561.9941493720855 C324.8774710194725,564.5762923720856 325.0319601194725,567.1947243720856 324.1338761194725,569.6586933720856 C323.2292776194725,572.1431343720856 321.3949528194725,574.1520873720856 320.3386571194725,576.5667403720855 C318.1972155194725,581.4602493720856 318.2130367194725,587.3810333720855 318.2986571194725,592.6244123720855 C318.4978177194725,604.8242223720856 321.38657691947253,616.6732343720855 322.9147155194725,628.7269563720856 C317.8286754194725,628.7148593720856 312.5713944194725,628.7725513720856 307.64170461947253,627.3181763720855 C303.23876661947247,626.0191953720856 302.5361207194725,622.8015203720855 301.2909017194725,618.7463923720856 C297.7944236194725,607.3570493720856 294.01781771947253,596.0170223720855 292.8889309194725,584.0898483720856 C292.3519418194725,578.4063423720855 292.1257922194725,572.6763113720856 291.8689309194725,566.9741953720855 C291.6446425194725,561.9718173720855 292.7679455194725,559.7897903720856 297.2834929194725,557.3137243720855 C307.0982009194725,551.9298403720856 317.2721425194725,547.4476123720856 326.9863396194725,541.8078403720856 C325.9933287194725,548.4990793720856 325.3995696194725,555.2424273720856 325.02172281947253,561.9941493720855 M744.0174346194725,162.27564337208557 C741.6275076194725,161.83737737208557 739.2152446194725,161.56287937208558 736.8039126194725,161.2753543720856 C735.5456646194725,161.12461237208555 731.6248066194726,161.33397537208558 730.6829816194725,160.51420337208557 C729.5624706194725,159.53810737208556 731.5028906194725,152.15829637208557 731.6024706194726,150.57458137208556 C732.2092596194725,141.05089437208557 731.5038216194725,131.23316867208558 730.6299346194726,121.74577097208557 C729.0496786194725,104.57056637208557 723.6481466194725,88.65898337208557 711.1857196194725,76.29168217208557 C704.9828906194725,70.13548137208556 698.0094786194725,65.25127677208557 689.5377086194725,62.89431537208557 C684.6024346194724,61.52089457208557 679.5163946194725,60.788589472085576 674.5699526194726,59.457041272085576 C670.5802266194726,58.38138097208557 666.8566676194725,57.15032697208557 662.7115226194725,56.724157072085575 C654.4444966194725,55.87367827208557 646.8866316194725,52.749983372085566 638.8187666194725,50.94294857208557 C632.8830366194725,49.61326127208557 623.3363576194724,46.45979027208557 619.4880916194725,53.16219567208557 C616.4588036194725,49.60953927208557 613.4118326194725,46.94179027208557 609.5914856194725,44.29172078208557 C605.9321426194725,41.753311512085574 605.3337306194725,39.21769375208557 600.8526166194724,42.14877483208557 C592.1463216194725,47.84437717208557 583.9919056194725,54.79243507208557 575.8598246194724,61.272450472085566 C568.2647336194725,67.32443507208558 560.9162666194725,73.66208367208557 552.9563576194726,79.22741577208558 C544.8382376194725,84.90440807208557 546.3775436194725,94.53789457208558 550.1950986194724,102.52439257208557 C557.3779086194725,117.55665127208557 568.4564496194726,130.40781347208556 578.1538946194726,143.29340437208558 C584.2282926194725,151.36550837208557 590.3222336194725,159.44784837208556 596.3724346194725,167.53577137208558 C602.1564676194726,175.26638137208556 607.1587486194725,184.21315737208556 613.9171786194725,191.15842337208557 C618.1786576194725,195.53643537208558 623.2646976194725,189.81105637208557 627.1101716194726,187.16563937208556 C631.8835116194725,183.88003737208558 636.5730916194725,180.47253937208558 641.3520146194726,177.19624237208558 C651.3035296194726,170.3719403720856 661.9521056194725,163.98032337208556 672.4582926194726,158.03999837208556 C673.2223616194725,160.20620737208557 673.9864306194725,162.37241537208558 674.7505006194725,164.53862437208556 C672.4434016194725,164.71169737208558 669.3257006194725,164.19619937208557 668.1521426194724,166.67691737208557 C666.4741676194725,170.22026937208557 670.5904636194725,170.68552037208556 671.3117226194724,172.71680537208556 C671.9566676194725,174.53128437208557 669.3136026194725,179.32336937208558 668.5318506194725,180.95826137208556 C666.7738396194725,184.64211837208558 664.3187666194725,187.81792137208558 661.6142776194724,190.85042737208556 C650.9154456194725,202.85111037208557 637.3753176194725,211.43499137208556 623.6378906194725,219.61689437208557 C608.9372336194725,228.37105637208558 593.1812116194725,233.71585937208556 577.0873616194725,239.35749337208557 C568.9031646194725,242.22530037208557 560.4090586194725,243.55777837208558 551.9642776194726,245.39458937208556 C543.8266136194725,247.16440437208558 535.6963946194726,249.48879837208557 527.3809746194725,250.15689837208558 C510.3685656194725,251.52194437208558 492.31568261947245,252.54549637208558 475.5089496194725,248.87652737208558 C473.6690406194725,248.47548137208557 471.7221056194725,247.6054623720856 469.8505546194725,247.43983237208556 C468.3503356194725,247.30677137208556 467.2391316194725,247.93579037208556 465.82267161947254,248.01674437208558 C462.7812846194725,248.19074737208558 461.03816461947247,245.47089037208556 458.6221786194725,247.99813437208556 C457.41325561947247,249.26175537208556 457.3918506194725,251.38423037208557 455.7073616194725,249.02540837208556 C453.56405861947246,246.02453937208557 459.0419056194725,245.44390637208556 461.07166761947246,244.58877437208557 C467.90641261947246,241.70980137208556 473.40008061947253,235.91463537208557 477.74252561947253,230.05619537208557 C482.08217861947253,224.20240837208556 482.70571961947246,217.95036537208557 480.0635846194725,211.09628837208558 C477.4223796194725,204.24500237208557 471.4149896194725,199.60086737208556 466.9050256194725,194.03739637208557 C464.72356561947254,191.34359337208556 462.71613861947253,188.49346637208558 460.3206276194725,185.97831937208556 C459.0419056194725,184.63467437208558 456.98143061947246,183.34872037208558 456.9013946194725,181.99391037208557 C456.8083286194725,180.41950037208557 457.7510846194725,179.63694837208558 457.1871056194725,177.72290637208556 C457.0409926194725,177.22508737208557 456.4155916194725,176.94221537208557 456.28250761947254,176.39507937208558 C456.07217861947254,175.52319937208557 456.3979086194725,174.77507637208558 456.28809161947254,173.92552737208558 C456.0349526194725,171.97705637208557 455.2708836194725,170.75344637208556 454.1894596194725,169.15670537208558 C453.51566461947255,168.15920737208558 452.5300986194725,166.16235037208557 451.6031646194725,165.41515737208556 C449.9782376194725,164.1050103720856 447.7623436194725,164.63911837208556 446.1104276194725,163.31129237208557 C443.4962116194725,161.21114937208557 442.5767226194725,156.78568237208557 440.2640406194725,154.23610737208557 C437.0086026194725,150.64809137208556 436.3143326194725,154.2733273720856 432.86531761947253,153.12974037208556 C429.91606561947253,152.15085237208558 429.9505006194725,147.71328837208557 427.56708761947255,146.21238837208557 C424.2102086194725,144.09828837208556 421.3828726194725,147.98778637208557 418.4019786194725,148.85408337208557 C414.4801896194725,149.99394837208558 415.98692361947246,145.56941237208557 412.4913766194725,145.16650437208557 C409.3345876194725,144.80174737208557 404.9623616194725,151.20546237208558 403.3876896194725,153.47960837208558 C401.7841676194725,151.61023037208557 400.02987961947247,148.42512237208558 397.14391261947253,149.56591737208555 C394.11462461947247,150.76440437208555 393.5757736194725,156.33997137208559 391.36174061947247,158.32938437208557 C390.5902266194725,159.02074737208557 390.7530916194725,159.53159337208558 389.8038216194725,159.84982537208558 C388.5781466194725,160.26017637208557 386.9448436194725,158.48105637208556 385.3599346194725,159.02353937208557 C382.1631276194725,160.11780937208556 382.5530736194725,164.38416137208557 382.54655861947253,167.14775137208557 C378.7746056194725,166.59689437208556 376.14363861947254,166.31588337208558 374.8807376194725,170.38124637208557 C373.6448246194725,174.36007237208557 373.17577361947247,172.60421537208558 369.1990766194725,173.89668237208556 C365.7705366194725,175.01049337208556 365.2912486194725,178.26631937208558 364.7254086194725,181.45049637208558 C364.3754816194725,183.43060537208558 364.6993506194725,184.23921137208558 365.2316866194725,186.04438437208557 C365.90362061947246,188.31853137208557 365.90362061947246,188.28968637208558 364.8082376194725,190.46054737208559 C362.8994596194725,194.24769037208557 362.7849896194725,198.42006037208557 362.4797336194725,202.58777837208558 C362.1558656194725,207.03557837208558 361.37783561947253,211.08419137208557 362.6416676194725,215.42777437208557 C363.4234196194725,218.11599537208556 363.4829816194725,221.77379837208557 366.11581061947254,223.27935037208556 C367.1600076194725,223.87580137208556 368.9338396194725,223.54919537208556 369.8226166194725,224.14099537208557 C371.5192046194725,225.27062437208556 371.0026896194725,226.99019137208558 372.1325076194725,228.63997137208557 C372.9794056194725,229.87474737208558 374.3446786194725,229.99385237208557 375.2930186194725,230.99507237208556 C376.32418661947247,232.08469037208556 376.38560961947246,233.41251637208558 376.9728546194725,234.74220337208558 C378.7113216194725,238.68008737208558 380.3464856194725,240.58482537208556 374.6797156194725,240.81000637208558 C371.18416761947253,240.94865137208558 367.4550256194725,241.99732737208558 363.9734386194725,241.67537337208557 C359.8645876194725,241.29665937208557 358.8427266194725,239.00018037208557 357.5351536194725,235.50335437208557 C350.9442406194725,217.88150837208556 347.4021606194725,198.78109537208556 338.7219236194725,182.02368637208556 C336.8159382194725,178.34448137208557 328.9928360194725,163.31315337208557 325.6862119194725,174.26516137208557 C322.8979637194725,183.50225337208556 326.5563761194725,194.77528437208557 327.9588761194725,203.96957437208556 C323.5577995194725,200.00284437208558 321.9300805194725,192.85845037208557 318.5880915194725,188.01518837208556 C316.1199893194725,184.43740837208557 308.3908834194725,175.65067837208557 303.8604455194725,180.68562437208558 C300.2895148194725,184.65421537208556 301.1820148194725,193.06874437208558 301.8409199194725,197.81337337208558 C302.8823250194725,205.31880137208557 305.2806279194725,212.55252337208557 306.9939674194725,219.91372437208557 C304.83670461947247,217.09244237208557 303.7729637194725,213.64679437208557 302.2764674194725,210.47006037208558 C300.3993323194725,206.48658137208557 298.0568688194725,202.70595237208556 295.3877447194725,199.20540437208558 C293.0555185194725,196.14591337208557 290.4478177194725,193.30230037208557 287.6204820194725,190.69410337208558 C285.4594966194725,188.69910737208556 281.5888944194725,184.33319137208557 278.5195878194725,184.09684437208557 C270.6211024194725,183.49108737208556 273.10502581947253,197.97993337208558 274.30836521947253,202.12252737208559 C276.8015951194725,210.70826937208557 279.5051535194725,219.05673237208558 281.4409199194725,227.81554737208558 C285.2249710194725,244.92747737208558 289.8084564194725,261.64394437208557 292.5957739194725,278.97361237208554 C293.2127995194725,282.81658537208557 293.95639441947253,285.88352037208557 292.4366316194725,289.57668237208554 C291.0974163194725,292.8306473720856 289.7079455194725,296.72200637208556 287.2370513194725,299.22412637208555 C281.6438031194725,304.8899523720856 276.9998250194725,310.94007637208557 272.8193141194725,317.76716837208556 C268.3409929194725,325.0790523720856 263.73144911947253,332.47561237208555 260.0758287194725,340.23785937208555 C258.3950623194725,343.8091263720856 257.0204820194725,347.67163937208556 255.0884382194725,351.10705237208555 C253.34438711947251,354.20748537208556 251.2476170194725,356.6574963720856 250.00798201947248,360.0901183720855 C244.0843505994725,376.4920763720856 239.6981644694725,392.6074393720856 237.6898068014725,409.9752573720856 C236.0406827094725,424.2342693720856 237.5771973124725,443.2016203720856 254.7934199194725,446.53840037208556 C262.7021425194725,448.07093737208555 269.8030550194725,444.5638753720856 276.9346790194725,441.6690833720856 C284.3110659194725,438.6756593720856 289.6446608194725,433.80913437208557 295.6613579194725,428.6374043720856 C303.1373250194725,422.21135737208556 310.89900391947253,416.18170537208556 318.4540769194725,409.8626663720856 C326.0128725194725,403.53990637208557 332.99466081947253,396.5285743720856 340.5125076194725,390.1378863720856 C347.93821961947253,383.8244313720856 354.6557006194725,377.11923437208554 361.0772336194725,369.7878093720856 C367.4475806194725,362.51500637208557 372.6220326194725,354.4577903720856 378.7894966194725,347.08356237208557 C378.7662306194725,356.6314423720856 377.3488396194725,366.09185637208554 376.9514496194725,375.6267093720856 C376.58756261947246,384.36877437208557 376.57918661947247,393.1024663720856 376.9319056194725,401.8398793720856 C377.28462461947254,410.5726393720856 374.97752561947254,418.88481337208555 374.95891261947247,427.59896437208556 C374.9393686194725,436.09909937208556 374.6024706194725,444.5499173720856 374.4163396194725,453.04074737208555 C374.33258061947254,456.85022237208557 373.5861936194725,461.1230873720856 375.00916761947246,464.7976393720856 C376.0719786194725,467.54169037208555 379.4121056194725,468.3996123720856 382.26177761947247,469.13936137208555 C386.6656466194725,470.2820183720856 399.9154086194725,468.08138137208556 401.88188661947254,472.78599837208554 C402.9558656194725,475.3532533720856 401.87444161947246,480.02716437208556 401.9582006194725,482.8642653720856 C402.09779961947254,487.5391073720856 402.2690406194725,492.21301837208557 402.4291136194725,496.88692937208555 C402.5947706194725,501.71437337208556 402.7557736194725,506.5418173720856 402.9316676194725,511.36833037208555 C403.0880186194725,515.6207243720855 403.91537261947246,520.3588403720855 403.4025806194725,524.5693613720855 C402.9642406194725,528.1778483720856 400.8600256194725,527.7060833720856 397.52548161947254,527.8912533720855 C392.4924896194725,528.1694733720856 387.4576356194725,528.3927943720855 382.4218506194725,528.6123923720857 C375.0352266194725,528.9362073720856 367.3265956194725,528.7882573720856 360.24522661947253,529.6601373720855 C357.27084661947254,530.0258253720856 354.0209926194725,529.8704313720856 350.8837486194725,530.4668833720856 C346.9489306194725,531.2150063720856 343.3147156194725,531.4048293720855 339.3240586194725,531.6030253720855 C336.1067776194725,531.7621413720856 331.9709382194725,531.5285853720856 329.4432739194725,533.9069483720856 C328.5665951194725,534.7323033720857 328.3702265194725,535.7158443720856 327.7485477194725,536.6342493720856 C326.5842958194725,538.3547473720855 327.2320331194725,537.9025233720856 325.3213944194725,538.2896123720856 C317.8593871194725,539.8007473720857 310.7724345194725,541.5063573720856 303.4751535194725,544.0494193720856 C299.8223250194725,545.3223463720856 296.4328725194725,547.0316783720856 292.76329221947253,548.2292343720856 C289.5469418194725,549.2788403720856 287.18958781947254,550.5713073720856 285.60002581947253,553.7285003720856 C282.7596608194725,559.3673423720855 283.4790586194725,567.5250523720856 283.6847338194725,573.6021613720856 C284.0086024194725,583.0830453720856 286.11467901947253,592.1089133720856 288.3864126194725,601.2780793720856 C290.7493506194725,610.8166553720856 292.6022885194725,620.6111183720856 297.1988031194725,629.3745853720856 C298.7092593194725,632.2544893720856 300.3397703194725,635.9281103720856 303.4248980194725,637.4290103720856 C307.4081097194725,639.3663153720855 313.5336936194725,638.1920223720856 317.8807922194725,638.1994663720856 C320.7984017194725,638.2041183720855 328.6131279194725,639.2062693720856 330.7936571194725,636.7599793720856 C332.9053177194725,634.3909213720856 330.7806279194725,627.7099173720856 330.4828177194725,624.7704623720856 C329.4376900194725,614.4679443720855 327.5568323194725,604.0705163720855 327.5819601194725,593.6982113720856 C329.9616498194725,597.2145783720856 334.08818271947246,603.2842423720856 338.2175076194725,597.8966353720856 C339.2337846194725,596.5706703720856 338.8373246194725,595.9546783720856 340.6418686194725,595.1860833720856 C341.6404636194725,594.7608443720856 343.7446786194725,594.5003033720856 344.8316866194725,594.5738133720856 C346.3105006194725,594.6733773720856 346.8577266194725,595.2679683720855 348.2164856194725,594.9767203720855 C349.4188946194725,594.7189713720855 350.7711386194725,593.6423813720855 352.1503726194725,593.3148443720855 C369.2437486194725,589.2522733720856 386.2384746194725,584.8733303720855 403.4053726194725,581.2536783720856 C407.9441866194725,580.2961913720856 407.29924061947247,583.7809213720856 407.5989126194725,587.7048483720856 C407.9302266194725,592.0447093720855 407.29831061947255,596.4283033720856 407.9004456194725,600.7197783720856 C408.4244056194725,604.4538833720856 408.8320326194725,608.0930763720855 408.0940226194725,611.8495123720855 C407.2238576194725,616.2796323720855 407.78411361947246,619.9765163720856 408.6505546194725,624.3638323720855 C411.9897516194725,641.2831493720855 411.3932006194725,659.6335783720856 412.1461026194725,676.8292533720855 C412.53790861947255,685.7853343720856 411.69659561947253,694.9293773720856 412.53883961947247,703.8370723720856 C412.85712461947253,707.2017673720856 414.7351896194725,709.0609103720856 415.49646761947247,712.1213303720856 C416.3703546194725,715.6358363720856 413.98694161947253,720.1106203720856 413.26195961947246,723.5153273720856 C411.8054816194725,730.3489333720855 409.2461756194725,740.1303693720856 413.9273796194725,746.0762763720855 C416.45504361947246,749.2883693720855 419.7691136194725,749.7536203720856 423.51128461947246,750.8395163720855 C427.9896056194725,752.1394273720856 432.4037116194725,753.6542843720856 436.90343861947247,754.8853383720857 C453.3434926194725,759.3852463720856 471.1088036194725,760.2655003720856 487.95834661947254,762.7452883720856 C492.0839496194725,763.3519753720856 495.9108106194725,763.2952153720855 500.06340161947253,763.0076903720856 C502.6227086194725,762.8299643720856 508.9269786194725,763.6720683720856 511.0553906194725,762.1404623720856 C512.1954456194725,761.3206903720856 511.61750761947246,760.2943463720856 512.1973066194726,759.2921953720855 C513.0200076194725,757.8685273720856 514.0176716194725,757.2897553720856 515.4192406194725,756.4039173720855 C517.7402996194726,754.9374463720856 520.4243136194725,754.0804543720856 520.8161206194725,751.0526013720855 C521.7737666194726,743.6355703720856 512.5053546194724,739.7060603720855 507.54960561947246,736.4995513720855 C501.21648561947245,732.3997593720856 493.5664856194726,730.8169753720856 486.84528161947253,727.4708903720856 C483.13661361947254,725.6247743720855 479.55916761947253,723.5330063720855 475.9863766194725,721.4384463720855 C474.4368326194725,720.5302763720856 471.29586561947247,719.5020723720855 470.2163036194725,718.0718903720856 C469.1144056194725,716.6128633720856 470.19303661947254,714.5304003720855 470.6490586194725,712.4451453720856 C472.5327086194725,703.8296283720856 471.8961386194725,695.0196353720855 472.87053661947255,686.3129293720856 C473.8449346194725,677.5922653720855 473.57969761947254,668.8176323720855 473.9007736194725,660.0523033720856 C474.2320876194725,651.0255043720856 474.9775436194725,642.0210373720855 475.5498976194725,633.0072653720856 C476.0766496194725,624.6820643720856 476.6080546194725,616.2228713720856 476.6964676194725,607.8892963720856 C476.77929561947246,600.1614773720855 477.8327996194725,592.5797473720855 478.0822156194725,584.8016823720856 C478.1669056194725,582.1618483720856 477.69320061947246,577.3734853720856 479.4456276194725,575.1374893720856 C480.9830736194725,573.1759913720856 486.07283561947247,573.4225743720856 488.4469416194725,573.0782883720856 C494.8461386194725,572.1496473720856 500.9363576194726,571.3354583720856 507.26296361947243,570.7752963720856 C522.3172706194725,569.4428173720855 539.0700256194725,568.4620683720856 553.3053546194725,563.2149683720855 C559.1759386194725,561.0515513720856 566.9878726194725,558.0953463720856 568.9357376194725,551.3538593720856 C571.1758286194724,543.6046393720856 568.2517046194725,534.0800223720855 568.1549166194725,526.1567983720856 C568.0516136194725,517.6976053720855 565.5993326194725,509.4440523720856 563.7603546194725,501.2472613720856 C561.7799166194725,492.42331137208555 560.5328356194725,483.44769037208556 558.3932556194725,474.65723837208554 C556.4295696194724,466.5907173720856 553.2448616194724,459.4472533720856 550.2341866194724,451.7892223720856 C549.0122336194725,448.6832073720856 542.0555736194725,437.9805743720856 544.2137666194725,435.3407403720856 C545.3761576194725,433.9189333720856 549.5631826194725,433.5588293720856 551.2616316194725,432.90840837208555 C554.9228356194725,431.50800237208557 558.5905546194725,429.91498337208554 561.9669786194725,427.9199873720856 C566.4741496194724,425.25596037208555 576.3437666194725,420.84910337208555 576.7988576194725,414.93018037208554 C577.2316136194725,409.27272837208557 571.6727996194725,403.5557243720856 568.8473246194725,399.11350837208556 C564.2945516194725,391.95422637208554 558.5523976194725,385.69567037208554 554.2164676194725,378.3949523720856 C545.4534016194725,363.64091337208555 538.4846426194724,347.4808863720856 532.0956826194724,331.58140037208557 C528.7536936194725,323.26271337208556 527.6620326194725,315.42974737208556 527.1120146194726,306.55089837208556 C536.8169056194724,306.5741613720856 546.6948976194725,307.7679953720856 556.3383656194725,306.4113233720856 C566.8333836194724,304.93368637208556 577.3423616194725,302.44645437208555 587.7452446194725,300.39655837208556 C606.6896976194726,296.66245437208556 624.8793866194725,292.4463503720856 642.4287846194725,284.03833437208556 C658.8632556194725,276.16535737208557 675.5387666194724,267.5479793720856 689.1459016194725,255.05040837208557 C696.1816676194725,248.58807237208558 703.3588946194725,242.00197937208557 709.4342226194725,234.61193337208556 C715.6761386194726,227.02089837208558 720.3713036194724,218.39607637208556 725.1865226194725,209.87360837208558 C730.5015036194725,200.46716437208556 734.7322706194725,190.58151237208557 738.0770516194725,180.29202237208557 C738.7499166194725,178.22351637208558 738.7536386194724,175.58926537208558 739.6144966194724,173.63521137208556 C740.5861026194725,171.42899137208556 742.3534196194726,171.37130037208559 744.1989126194725,170.20910337208556 C746.7945146194725,168.57421137208559 748.5227446194725,163.10285937208556 744.0174346194725,162.27564337208557 " id="ink-shape"/>
            <path d="M518.0706236194725,56.975754372085575 C520.2892596194724,58.881643172085575 529.8509706194725,65.59516217208557 532.9394546194725,63.96275577208557 C536.7501306194724,61.94747407208557 530.7170336194724,55.87710997208557 529.0928106194725,54.38050167208557 C527.0256186194724,52.47649897208557 519.6390026194724,46.71639587208557 516.8108106194725,47.25110087208557 C511.1582126194726,48.32051097208557 516.0744206194724,55.26036027208557 518.0706236194725,56.975754372085575 " id="ink-shape"/>
            <path d="M522.7934136194725,125.87831177208557 C524.0470826194726,123.41131477208557 527.3812316194725,122.50437137208557 528.9225686194725,120.11704447208557 C530.7775536194724,117.24706437208557 531.6294186194725,114.73560027208558 530.9455136194724,111.21621537208557 C526.1980866194725,112.81425137208556 520.7973786194725,117.65097377208558 517.6209816194726,121.43345567208557 C514.9660976194725,124.59432457208557 511.1948816194724,131.19954017208556 518.1230066194726,131.21621537208557 C518.0626896194725,130.2759216720856 518.0023726194725,129.33470167208557 517.9411276194726,128.39533437208559 C520.0188226194725,128.69733997208556 521.8496816194724,127.73759197208557 522.7934136194725,125.87831177208557 " id="ink-shape"/>
            <path d="M500.17803361947244,84.83391487208557 C503.2384316194725,85.71359827208556 505.76417661947244,85.58904897208558 508.89128861947256,85.65785587208558 C511.1605116194726,85.70837237208556 514.2613136194725,86.95560657208557 516.1001836194725,85.54985517208557 C514.4680346194725,84.60484877208557 516.5305376194725,84.55259037208558 516.1264936194725,83.63110037208557 C515.7872846194725,82.86290157208558 515.1426936194725,83.11461297208558 514.6193156194724,82.49273777208558 C512.7513176194725,80.27698097208557 511.1266846194725,80.30398117208557 508.1649486194725,79.84323607208557 C505.8694156194724,79.48439497208557 502.4942396194725,78.65697007208557 500.2889106194725,79.79794547208557 C497.9680076194725,80.99901807208556 497.0697146194725,83.94029597208558 500.17803361947244,84.83391487208557 " id="ink-shape"/>
            <path d="M543.7430136194725,152.79566637208558 C545.7225296194724,151.13548837208558 547.8801276194724,146.32894037208558 548.2803426194725,143.84920437208558 C548.4368666194725,142.87763837208558 547.7367256194725,142.13316837208558 547.8201426194726,141.41800037208557 C547.9804156194725,140.05542737208557 550.7809806194725,137.42093737208558 547.8473236194725,136.30285837208555 C545.2810756194725,135.32396697208557 542.8694776194725,142.9280023720856 542.2171366194725,144.58726437208557 C541.5479256194725,146.28407037208558 539.7258706194725,149.58977437208557 540.2854216194726,151.23163837208557 C540.7493706194725,152.59329537208558 542.4064656194726,153.91557637208558 543.7430136194725,152.79566637208558 " id="ink-shape"/>
            <path d="M567.4216476194724,49.878622572085575 C569.2126476194725,48.21647127208557 570.3457666194724,46.33141877208557 570.1603966194725,44.045720542085576 C570.0131916194725,42.24521678208557 568.6647166194725,36.03761017708557 567.1472276194725,36.22015858388557 C562.1086186194725,36.82833301208557 564.3739476194726,52.709083572085575 567.4216476194724,49.878622572085575 " id="ink-shape"/>
            <path d="M461.04482961947247,327.41305937208557 C460.6303196194725,325.89519037208555 459.1227586194725,316.61477337208555 456.5166096194725,317.24706337208556 C454.53637861947254,317.72756637208556 456.59323361947247,325.89425937208557 456.6855516194725,326.96887337208557 C456.8784976194725,329.21680937208555 452.5570706194725,329.1432433720856 450.5491446194725,328.83967037208555 C447.3641576194725,328.3582353720856 447.6198806194725,326.49209537208554 447.1435166194725,323.5969693720856 C446.9644196194725,322.5028003720856 446.2748006194725,317.5580863720856 443.9926886194725,319.3692853720856 C442.4509706194725,320.5928933720856 443.5532526194725,326.69044237208556 443.6815756194725,328.0816663720856 C444.1265496194725,332.89973637208556 444.64907261947246,341.1278893720856 447.51371361947247,345.50363537208557 C448.6556936194725,347.2487183720856 449.6831976194725,348.11008637208556 450.8833376194725,345.8723933720856 C452.0973246194725,343.60769637208557 449.34900461947245,336.70465237208555 448.8680256194725,334.38780637208555 C451.1353666194725,334.60943437208556 457.6613576194725,333.87378037208555 459.02674761947253,336.22880437208556 C460.2739706194725,338.37803237208556 458.2789686194725,344.5193483720856 462.2800496194725,345.0175443720856 C464.6535576194725,345.31366837208554 464.2233536194725,342.5638123720856 463.9953266194725,340.44997037208555 C463.5161946194725,336.01462637208556 462.2145036194725,331.6975473720856 461.04482961947247,327.41305937208557 " id="ink-shape"/>
            <path d="M467.1238326194725,325.2662863720856 C464.4958676194725,326.45316237208556 467.7954966194725,343.7611433720856 471.6400946194725,343.20300537208556 C476.12747761947253,342.5504143720856 469.6278986194725,324.13474637208554 467.1238326194725,325.2662863720856 " id="ink-shape"/>
            <path d="M464.19506461947253,319.53473637208555 C463.8712516194725,323.4317843720856 468.9352956194725,324.8847033720856 469.1750136194725,320.6496173720856 C469.3596346194725,317.38192337208557 464.5362766194725,315.4379803720856 464.19506461947253,319.53473637208555 " id="ink-shape"/>
            <path d="M436.3971606194725,216.21201937208556 C438.70942661947254,224.82807737208557 459.75292761947253,228.49284637208558 456.9180526194725,216.87339937208557 C455.49779461947253,211.05506837208557 449.5686176194725,216.22379737208558 445.4281576194725,215.54701537208558 C442.7493126194725,215.10941737208557 434.7691746194725,210.13638537208558 436.3971606194725,216.21201937208556 " id="ink-shape"/>
            <path d="M431.1122236194725,200.84349637208558 C432.10170161947246,196.23279837208557 422.01674961947253,191.14436637208559 418.3574286194725,192.41369637208558 C413.00396161947253,194.27093737208557 413.0269296194725,206.14579937208558 417.11070561947247,209.30292337208556 C417.6481656194725,209.71862737208556 419.2954576194725,210.70927937208558 420.10210661947247,209.91953537208556 C421.3754726194725,208.67057337208558 419.98450861947254,209.01128337208556 419.6868386194725,207.76417237208557 C419.2155276194725,205.78101737208556 417.6729716194725,203.23494937208557 419.20909661947246,200.97866937208556 C422.1132166194725,196.71608837208558 429.6955346194725,207.44938637208557 431.1122236194725,200.84349637208558 " id="ink-shape"/>
            <path d="M400.3612516194725,223.22163637208558 C396.7249506194725,223.01729637208558 393.7435746194725,228.66096037208558 399.0931676194725,228.18806037208557 C400.1177656194725,228.09756737208556 402.3189176194725,227.83970937208557 402.9134156194725,226.76352137208556 C403.89713661947246,224.97992937208556 401.9599086194725,223.31115637208558 400.3612516194725,223.22163637208558 " id="ink-shape"/>
            <path d="M576.7608476194725,88.67865687208557 C575.5163746194726,86.87838637208557 572.9071996194725,83.98123217208557 570.6623046194725,85.78695527208558 C568.6722256194726,87.38820557208558 569.0194576194725,91.34044007208557 569.7830096194725,93.30428897208557 C571.8367926194725,98.59150447208557 576.6890686194724,103.30165207208557 582.1801786194725,100.25545977208557 C580.2726456194725,96.43408787208557 579.1977526194726,92.20286147208557 576.7608476194725,88.67865687208557 " id="ink-shape"/>
        </g>
    </g></svg>